<?xml version="1.0" encoding="utf-8"?>
<!-- Generator: Adobe Illustrator 22.0.1, SVG Export Plug-In . SVG Version: 6.00 Build 0)  -->
<svg version="1.1" id="Слой_1" xmlns="http://www.w3.org/2000/svg" xmlns:xlink="http://www.w3.org/1999/xlink" x="0px" y="0px"
	 viewBox="0 0 20 18.7" style="enable-background:new 0 0 20 18.7;" xml:space="preserve">
<style type="text/css">
	.st0{fill:#7290B2;}
</style>
<path class="st0" d="M18.2,1.8c2.4,2.4,2.5,6.3,0.1,8.7c0,0,0,0-0.1,0.1L10,18.7L9.3,18l-7.5-7.4c-2.4-2.4-2.5-6.3-0.1-8.7
	c0,0,0-0.1,0.1-0.1C4.1-0.4,7.6-0.6,10,1.2C12.5-0.6,15.9-0.4,18.2,1.8z M16.8,9.2c1.6-1.6,1.6-4.3,0-5.9c0,0,0,0,0,0
	c-1.7-1.6-4.4-1.7-6,0L10,3.9L9.3,3.2c-1.7-1.7-4.4-1.7-6.1,0C1.6,4.8,1.6,7.5,3.2,9.1c0,0,0,0,0.1,0.1l6.8,6.7L16.8,9.2L16.8,9.2z"
	/>
</svg>
